<svg width="254" height="185" viewBox="0 0 254 185" fill="none" xmlns="http://www.w3.org/2000/svg">
<path d="M133 74.5C149.667 74.3333 188.5 72.9 210.5 68.5C209.667 56.8333 200.5 33.8 170.5 35C140.5 36.2 133 61.8333 133 74.5Z" fill="white"/>
<path d="M127.5 74.5C109.667 74.5 69.2 73.5 50 69.5C51.6667 57.5 62.5 33.8 92.5 35C122.5 36.2 128.333 61.8333 127.5 74.5Z" fill="white"/>
<path fill-rule="evenodd" clip-rule="evenodd" d="M130 78.5C109.167 78.6667 56.7 76.8 13.5 68C9 67 0 67.7 0 78.5C0.166667 80.6667 1.2 86.5 4 92.5C6.8 98.5 27.8333 151.667 38 177.5C38.8333 179.667 41.9 184 47.5 184H209.333C211.389 184.167 216.1 182.9 218.5 176.5L253 83.5C253.667 81.6667 254.6 77.1 253 73.5C251.4 69.9 247.667 68 246 67.5C245.333 67.1667 241.4 67.1 231 69.5C218 72.5 167.5 79.5858 130 78.5ZM78.5 118.5C74.5 118.5 73.1667 121.167 73 122.5C73 139.5 83.9 173.5 127.5 173.5C171.1 173.5 181.333 139.5 181 122.5C180.833 121.167 179.5 118.5 175.5 118.5C171.5 118.5 170.167 121.167 170 122.5C170.167 135.5 161.9 161.6 127.5 162C93.1 162.4 84.1667 135.833 84 122.5C83.8333 121.167 82.5 118.5 78.5 118.5ZM80.5 96.5C75.7 96.5 74.1667 100.167 74 102C74 104.333 75.3 108.9 80.5 108.5C85.7 108.1 86.6667 104 86.5 102C86.5 100.167 85.3 96.5 80.5 96.5ZM166 103C166 98.2 170.333 96.3333 172.5 96C174.833 96.3333 179.4 98.2 179 103C178.6 107.8 174.5 109 172.5 109C170.333 109 166 107.8 166 103Z" fill="white"/>
<path d="M67 0C60 5.83333 49.8 21.5 65 37.5C71.8333 31.6667 81.8 16 67 0Z" fill="white"/>
<path d="M37 26.5C43.5 25.1666 57.3 26 60.5 40C55 42.5 42.6 43.3 37 26.5Z" fill="white"/>
<path d="M194.5 0C188.667 6.66667 180.9 23.5 196.5 37.5C203 31.6667 211.7 16 194.5 0Z" fill="white"/>
<path d="M225 26.5C218.5 25 204.7 25.6 201.5 40C207.333 42.5 220.2 43.3 225 26.5Z" fill="white"/>
</svg>
