<svg width="340" height="282" viewBox="0 0 340 282" fill="none" xmlns="http://www.w3.org/2000/svg">
<path d="M176.058 74.5C192.725 74.3333 231.558 72.9 253.558 68.5C252.725 56.8333 243.558 33.8 213.558 35C183.558 36.2 176.058 61.8333 176.058 74.5Z" fill="#F0612F"/>
<path d="M170.558 74.5C152.725 74.5 112.258 73.5 93.0583 69.5C94.725 57.5 105.558 33.8 135.558 35C165.558 36.2 171.392 61.8333 170.558 74.5Z" fill="#F0612F"/>
<path fill-rule="evenodd" clip-rule="evenodd" d="M173.058 78.5C152.225 78.6666 99.7583 76.8 56.5583 68C52.0583 67 43.0583 67.7 43.0583 78.5C43.225 80.6666 44.2583 86.5 47.0583 92.5C49.8583 98.5 70.8916 151.667 81.0583 177.5C81.8916 179.667 84.9583 184 90.5583 184H252.391C254.447 184.167 259.158 182.9 261.558 176.5L296.058 83.5C296.725 81.6666 297.658 77.1 296.058 73.5C294.458 69.9 290.725 68 289.058 67.5C288.392 67.1666 284.458 67.1 274.058 69.5C261.058 72.5 210.558 79.5858 173.058 78.5ZM121.558 118.5C117.558 118.5 116.225 121.167 116.058 122.5C116.058 139.5 126.958 173.5 170.558 173.5C214.158 173.5 224.392 139.5 224.058 122.5C223.892 121.167 222.558 118.5 218.558 118.5C214.558 118.5 213.225 121.167 213.058 122.5C213.225 135.5 204.958 161.6 170.558 162C136.158 162.4 127.225 135.833 127.058 122.5C126.892 121.167 125.558 118.5 121.558 118.5ZM123.558 96.5C118.758 96.5 117.225 100.167 117.058 102C117.058 104.333 118.358 108.9 123.558 108.5C128.758 108.1 129.725 104 129.558 102C129.558 100.167 128.358 96.5 123.558 96.5ZM209.058 103C209.058 98.2 213.392 96.3333 215.558 96C217.892 96.3333 222.458 98.2 222.058 103C221.658 107.8 217.558 109 215.558 109C213.392 109 209.058 107.8 209.058 103Z" fill="url(#paint0_linear_14_54)"/>
<path d="M110.058 0C103.058 5.83333 92.8583 21.5 108.058 37.5C114.892 31.6667 124.858 16 110.058 0Z" fill="#A3BE3A"/>
<path d="M80.0583 26.5C86.5583 25.1666 100.358 26 103.558 40C98.0583 42.5 85.6583 43.2999 80.0583 26.5Z" fill="#F0612F"/>
<path d="M237.558 0C231.725 6.66667 223.958 23.5 239.558 37.5C246.058 31.6667 254.758 16 237.558 0Z" fill="#F0612F"/>
<path d="M268.058 26.5C261.558 25 247.758 25.6 244.558 40C250.392 42.5 263.258 43.3 268.058 26.5Z" fill="#A3BD3E"/>
<path d="M37.04 210.359C38.2967 209.059 40.3117 208.409 43.085 208.409C45.9017 208.409 47.895 209.016 49.065 210.229C50.235 211.442 50.82 213.652 50.82 216.859C50.82 220.022 50.4517 225.894 49.715 234.474C49.0217 243.054 48.675 249.207 48.675 252.934C46.9417 254.277 44.4933 254.949 41.33 254.949C39.8567 254.949 38.86 254.667 38.34 254.104C34.3967 253.324 30.1067 244.896 25.47 228.819C25.1667 237.832 25.015 246.044 25.015 253.454C24.1917 254.451 22.22 254.949 19.1 254.949C16.0233 254.949 14.42 253.649 14.29 251.049L12.21 211.789C15.3733 209.882 18.2117 208.929 20.725 208.929C21.9817 208.929 22.9783 209.146 23.715 209.579C24.3217 209.406 24.885 209.319 25.405 209.319C27.2683 209.319 28.6333 210.251 29.5 212.114C30.3667 213.934 31.385 217.097 32.555 221.604C33.725 226.111 34.4617 228.971 34.765 230.184C35.1117 231.354 35.5667 233.001 36.13 235.124C36.6933 237.247 37.2567 239.306 37.82 241.299C37.9067 237.529 37.95 234.236 37.95 231.419C37.95 223.576 37.755 217.704 37.365 213.804L37.04 210.359ZM71.4925 221.279C72.8359 220.629 74.1142 220.304 75.3275 220.304C76.5842 220.304 77.6675 220.867 78.5775 221.994C79.5309 223.121 80.0075 224.399 80.0075 225.829V247.734L81.4375 251.049C81.2642 251.352 81.0259 251.721 80.7225 252.154C80.4192 252.587 79.7475 253.172 78.7075 253.909C77.6675 254.646 76.5625 255.014 75.3925 255.014C72.7492 255.014 71.0809 253.562 70.3875 250.659C69.8675 251.872 69.0659 252.912 67.9825 253.779C66.8992 254.602 65.5992 255.014 64.0825 255.014C61.4825 255.014 59.3592 254.191 57.7125 252.544C56.1092 250.854 55.3075 248.709 55.3075 246.109V227.844L53.8775 223.359C54.4842 222.579 55.4375 221.886 56.7375 221.279C58.0809 220.629 59.3809 220.304 60.6375 220.304C61.8942 220.304 62.9775 220.867 63.8875 221.994C64.7975 223.121 65.2525 224.399 65.2525 225.829V241.624C65.2525 243.487 65.5342 244.809 66.0975 245.589C66.7042 246.369 68.0259 246.781 70.0625 246.824V227.844L68.5675 223.359C69.1742 222.579 70.1492 221.886 71.4925 221.279ZM101.665 221.994C102.099 223.077 102.315 224.226 102.315 225.439C102.315 226.609 102.272 227.476 102.185 228.039C102.142 228.559 101.882 229.144 101.405 229.794C100.929 230.401 100.3 230.704 99.5202 230.704C98.7402 230.704 97.6136 230.661 96.1402 230.574V240.129C96.1402 244.376 97.9819 247.192 101.665 248.579C101.665 250.182 101.102 251.656 99.9752 252.999C98.8919 254.342 97.3969 255.014 95.4902 255.014C92.7169 255.014 90.4852 253.996 88.7952 251.959C87.1052 249.922 86.2602 247.279 86.2602 244.029V229.859C85.1336 229.556 84.1152 229.187 83.2052 228.754L83.1402 227.974C83.1402 225.027 84.1586 223.056 86.1952 222.059C86.0219 219.069 85.6536 216.707 85.0902 214.974L84.8302 214.064C85.0036 213.847 85.2419 213.566 85.5452 213.219C85.8919 212.872 86.6069 212.417 87.6902 211.854C88.7736 211.291 89.9002 211.009 91.0702 211.009C94.4502 211.009 96.1402 213.717 96.1402 219.134V221.799C97.5269 221.929 99.3686 221.994 101.665 221.994ZM110.34 255.014C106.786 255.014 105.01 252.457 105.01 247.344V227.844L103.58 223.359C103.753 223.142 103.991 222.861 104.295 222.514C104.641 222.167 105.356 221.712 106.44 221.149C107.523 220.586 108.65 220.304 109.82 220.304C112.55 220.304 114.196 222.037 114.76 225.504C116.883 222.211 119.396 220.564 122.3 220.564C125.246 220.564 126.72 221.951 126.72 224.724C126.72 227.151 126.2 229.144 125.16 230.704C124.206 232.091 123.21 233.196 122.17 234.019C120.133 232.199 117.728 231.029 114.955 230.509V247.734L116.385 251.049C116.211 251.352 115.973 251.721 115.67 252.154C115.366 252.587 114.695 253.172 113.655 253.909C112.615 254.646 111.51 255.014 110.34 255.014ZM134.143 255.014C130.59 255.014 128.813 252.457 128.813 247.344C128.813 234.344 128.965 225.786 129.268 221.669C130.178 220.759 131.63 220.304 133.623 220.304C137.047 220.304 138.758 223.012 138.758 228.429V247.734L140.188 251.049C140.015 251.352 139.777 251.721 139.473 252.154C139.17 252.587 138.498 253.172 137.458 253.909C136.418 254.646 135.313 255.014 134.143 255.014ZM139.018 211.139C139.018 212.916 138.585 214.389 137.718 215.559C136.852 216.686 135.53 217.249 133.753 217.249C132.02 217.249 130.72 216.621 129.853 215.364C129.03 214.064 128.337 212.092 127.773 209.449C127.947 209.146 128.185 208.777 128.488 208.344C128.792 207.867 129.442 207.261 130.438 206.524C131.478 205.744 132.54 205.354 133.623 205.354C135.617 205.354 137.003 205.874 137.783 206.914C138.607 207.911 139.018 209.319 139.018 211.139Z" fill="#F0612F"/>
<path d="M178.1 232.214C177.967 233.647 177.7 235.114 177.3 236.614C176.933 238.114 176.383 239.581 175.65 241.014C174.95 242.447 174.1 243.831 173.1 245.164C172.133 246.497 171.05 247.731 169.85 248.864C168.65 249.997 167.367 250.947 166 251.714C163.067 253.447 160.233 254.064 157.5 253.564C156.9 254.864 156 255.681 154.8 256.014C153.633 256.381 152.467 256.381 151.3 256.014C150.167 255.681 149.167 255.031 148.3 254.064C147.433 253.097 147 251.781 147 250.114C147 248.414 147.117 246.681 147.35 244.914C147.583 243.147 147.9 241.447 148.3 239.814C148.933 237.114 149.717 234.581 150.65 232.214C152.85 226.847 154.1 223.081 154.4 220.914C154.833 218.014 155.633 216.214 156.8 215.514C158.733 214.381 160.567 213.897 162.3 214.064C164.033 214.231 165.6 214.647 167 215.314C169.3 216.414 171.783 218.264 174.45 220.864C177.383 223.697 178.6 227.481 178.1 232.214ZM158.45 247.214C160.15 246.347 161.517 245.464 162.55 244.564C163.617 243.631 164.617 242.781 165.55 242.014C166.983 240.581 168.033 238.881 168.7 236.914C170.167 232.581 169.233 229.297 165.9 227.064C165.4 226.697 164.65 226.197 163.65 225.564C163.183 226.631 162.833 227.747 162.6 228.914C162.4 230.081 162.117 231.214 161.75 232.314L160.4 236.714L159.3 241.464C159.233 242.131 159.133 242.781 159 243.414C158.867 244.014 158.75 244.647 158.65 245.314L158.45 247.214ZM194.138 245.114C193.504 245.414 192.888 245.647 192.288 245.814C191.688 245.981 190.988 246.147 190.188 246.314C188.088 246.747 186.571 246.997 185.638 247.064C185.738 247.397 186.238 247.797 187.138 248.264C187.738 248.364 188.388 248.281 189.088 248.014C189.821 247.714 190.571 247.447 191.338 247.214C192.138 246.947 192.904 246.797 193.638 246.764C194.404 246.731 195.121 247.014 195.788 247.614C196.054 248.214 196.271 248.564 196.438 248.664C196.604 248.764 196.754 248.814 196.888 248.814C197.021 248.814 197.171 248.864 197.338 248.964C197.504 249.064 197.738 249.447 198.038 250.114C198.371 250.781 198.288 251.414 197.788 252.014C197.321 252.614 196.588 253.131 195.588 253.564C194.588 253.997 193.421 254.347 192.088 254.614C190.754 254.881 189.421 255.064 188.088 255.164C185.088 255.397 182.804 255.164 181.238 254.464C178.971 253.697 177.504 252.181 176.838 249.914C175.971 246.914 176.454 243.414 178.288 239.414C179.121 237.547 180.438 235.547 182.238 233.414C183.804 231.547 185.554 230.197 187.488 229.364C189.721 228.397 192.054 227.947 194.488 228.014C197.088 228.081 198.888 229.214 199.888 231.414C200.388 232.581 200.488 234.214 200.188 236.314C199.654 239.047 198.954 240.981 198.088 242.114C197.221 243.214 195.904 244.214 194.138 245.114ZM191.238 237.214C189.471 236.847 188.088 237.847 187.088 240.214C186.788 240.847 186.554 241.514 186.388 242.214C187.521 242.347 188.721 241.714 189.988 240.314C190.454 239.747 190.804 239.181 191.038 238.614C191.271 238.014 191.338 237.547 191.238 237.214ZM210.609 250.564C210.409 251.264 210.175 251.881 209.909 252.414C209.642 252.947 209.242 253.447 208.709 253.914C208.175 254.381 207.542 254.814 206.809 255.214C206.075 255.647 205.375 255.947 204.709 256.114C203.175 256.447 202.375 255.997 202.309 254.764C202.209 254.431 201.992 254.231 201.659 254.164C201.359 254.131 201.075 254.047 200.809 253.914C200.109 253.614 199.909 252.797 200.209 251.464C200.742 249.631 201.325 247.414 201.959 244.814C202.592 242.181 203.409 239.297 204.409 236.164C206.775 228.564 209.709 221.714 213.209 215.614C213.442 215.314 213.709 214.931 214.009 214.464C214.309 213.964 214.692 213.514 215.159 213.114C216.325 212.047 217.759 211.797 219.459 212.364C219.425 212.797 219.525 213.197 219.759 213.564C219.992 213.897 220.259 214.247 220.559 214.614C221.325 215.481 221.675 216.264 221.609 216.964C218.075 225.331 214.892 234.681 212.059 245.014C211.725 246.214 211.459 247.264 211.259 248.164C211.059 249.064 210.842 249.864 210.609 250.564ZM222.106 230.864C222.539 229.764 223.573 229.014 225.206 228.614C226.739 228.214 228.173 228.264 229.506 228.764C230.873 229.297 231.489 230.164 231.356 231.364C230.989 232.531 230.523 233.964 229.956 235.664C229.423 237.331 228.906 239.047 228.406 240.814C227.073 245.347 226.306 248.547 226.106 250.414C225.606 253.414 224.773 255.031 223.606 255.264C223.273 255.331 222.956 255.381 222.656 255.414C221.923 255.447 221.456 255.647 221.256 256.014C221.056 256.381 220.723 256.647 220.256 256.814C219.789 257.014 219.273 257.097 218.706 257.064C218.173 257.064 217.623 256.931 217.056 256.664C216.489 256.431 216.006 256.081 215.606 255.614C214.673 254.481 214.489 252.964 215.056 251.064C215.589 247.431 216.939 242.814 219.106 237.214C220.139 234.447 221.139 232.331 222.106 230.864ZM231.556 223.364C229.923 223.697 228.589 223.597 227.556 223.064C226.556 222.531 225.973 221.897 225.806 221.164C225.639 220.397 225.873 219.614 226.506 218.814C227.239 217.814 228.339 217.164 229.806 216.864C230.473 216.797 230.956 216.764 231.256 216.764C231.556 216.764 231.923 216.831 232.356 216.964C233.456 217.064 234.173 217.547 234.506 218.414C234.973 219.147 235.006 219.981 234.606 220.914C234.239 221.847 233.223 222.664 231.556 223.364ZM242.62 230.314C242.787 232.314 242.937 234.331 243.07 236.364C243.204 238.364 243.404 240.364 243.67 242.364C244.27 241.131 244.82 239.831 245.32 238.464C245.854 237.097 246.42 235.747 247.02 234.414C248.454 231.281 250.037 228.981 251.77 227.514C252.837 226.347 254.437 225.764 256.57 225.764C257.837 225.764 258.637 226.164 258.97 226.964C259.137 227.364 259.087 227.897 258.82 228.564C260.454 229.731 260.804 231.081 259.87 232.614C259.604 233.014 259.337 233.381 259.07 233.714C257.637 236.114 256.32 238.331 255.12 240.364C253.154 243.731 251.387 246.614 249.82 249.014C249.287 249.814 248.537 250.714 247.57 251.714C246.637 252.681 245.604 253.514 244.47 254.214C241.804 255.947 239.687 256.264 238.12 255.164C237.087 255.031 236.12 254.697 235.22 254.164C234.32 253.631 233.637 252.931 233.17 252.064C232.47 250.231 232.637 246.031 233.67 239.464C233.904 237.997 234.054 236.897 234.12 236.164C234.187 235.431 234.27 234.764 234.37 234.164C234.47 233.564 234.554 232.997 234.62 232.464C234.687 231.931 234.754 231.397 234.82 230.864C234.887 230.297 235.037 229.781 235.27 229.314C235.837 228.247 236.87 227.664 238.37 227.564H238.97C239.57 227.697 240.137 227.847 240.67 228.014C241.57 228.347 242.17 228.981 242.47 229.914C242.504 230.014 242.554 230.147 242.62 230.314ZM274.46 245.114C273.826 245.414 273.21 245.647 272.61 245.814C272.01 245.981 271.31 246.147 270.51 246.314C268.41 246.747 266.893 246.997 265.96 247.064C266.06 247.397 266.56 247.797 267.46 248.264C268.06 248.364 268.71 248.281 269.41 248.014C270.143 247.714 270.893 247.447 271.66 247.214C272.46 246.947 273.226 246.797 273.96 246.764C274.726 246.731 275.443 247.014 276.11 247.614C276.376 248.214 276.593 248.564 276.76 248.664C276.926 248.764 277.076 248.814 277.21 248.814C277.343 248.814 277.493 248.864 277.66 248.964C277.826 249.064 278.06 249.447 278.36 250.114C278.693 250.781 278.61 251.414 278.11 252.014C277.643 252.614 276.91 253.131 275.91 253.564C274.91 253.997 273.743 254.347 272.41 254.614C271.076 254.881 269.743 255.064 268.41 255.164C265.41 255.397 263.126 255.164 261.56 254.464C259.293 253.697 257.826 252.181 257.16 249.914C256.293 246.914 256.776 243.414 258.61 239.414C259.443 237.547 260.76 235.547 262.56 233.414C264.126 231.547 265.876 230.197 267.81 229.364C270.043 228.397 272.376 227.947 274.81 228.014C277.41 228.081 279.21 229.214 280.21 231.414C280.71 232.581 280.81 234.214 280.51 236.314C279.976 239.047 279.276 240.981 278.41 242.114C277.543 243.214 276.226 244.214 274.46 245.114ZM271.56 237.214C269.793 236.847 268.41 237.847 267.41 240.214C267.11 240.847 266.876 241.514 266.71 242.214C267.843 242.347 269.043 241.714 270.31 240.314C270.776 239.747 271.126 239.181 271.36 238.614C271.593 238.014 271.66 237.547 271.56 237.214ZM286.331 231.814C286.798 230.614 287.448 229.714 288.281 229.114C289.148 228.481 289.964 228.097 290.731 227.964C291.531 227.797 292.181 227.881 292.681 228.214C293.214 228.547 293.398 229.064 293.231 229.764C293.864 229.131 294.781 228.547 295.981 228.014C297.181 227.481 298.131 227.114 298.831 226.914C299.531 226.714 300.131 226.614 300.631 226.614C301.731 226.681 302.048 227.281 301.581 228.414C302.148 228.514 302.564 228.881 302.831 229.514C303.098 230.147 303.131 230.847 302.931 231.614C302.731 232.381 302.281 233.131 301.581 233.864C300.881 234.597 299.931 235.097 298.731 235.364C297.564 235.631 296.581 236.247 295.781 237.214C295.014 238.147 294.331 239.314 293.731 240.714C292.731 243.081 291.831 246.431 291.031 250.764C290.764 252.331 289.681 253.647 287.781 254.714C285.981 255.747 284.331 256.047 282.831 255.614C281.131 255.147 280.381 253.897 280.581 251.864C280.648 250.431 281.081 248.531 281.881 246.164C282.681 243.764 283.298 241.964 283.731 240.764C284.164 239.531 284.464 238.597 284.631 237.964L286.331 231.814ZM302.804 237.214C302.837 235.847 302.737 234.731 302.504 233.864C302.271 232.997 302.271 232.281 302.504 231.714C302.771 231.114 303.171 230.697 303.704 230.464C304.271 230.231 304.921 230.164 305.654 230.264C306.421 230.331 307.171 230.547 307.904 230.914C309.671 231.714 310.904 232.847 311.604 234.314C311.771 235.047 311.704 235.964 311.404 237.064C311.137 238.131 310.821 239.247 310.454 240.414C310.087 241.547 309.737 242.664 309.404 243.764C309.071 244.831 308.937 245.731 309.004 246.464C309.871 245.931 310.621 245.131 311.254 244.064C311.921 242.997 312.521 241.864 313.054 240.664C313.621 239.431 314.137 238.214 314.604 237.014C315.104 235.814 315.571 234.864 316.004 234.164C316.471 233.464 316.837 232.914 317.104 232.514C317.371 232.081 317.637 231.697 317.904 231.364C318.337 230.797 318.904 230.247 319.604 229.714C319.804 229.547 320.404 229.581 321.404 229.814C322.437 230.014 323.187 230.164 323.654 230.264C324.154 230.331 324.487 230.297 324.654 230.164L325.354 229.664C326.287 229.197 327.387 229.214 328.654 229.714C329.887 230.247 330.537 231.064 330.604 232.164C330.571 232.197 330.554 232.264 330.554 232.364L330.704 232.414L330.354 232.714C330.121 233.147 329.937 233.447 329.804 233.614C329.704 233.747 329.471 233.964 329.104 234.264C326.837 236.697 324.237 241.214 321.304 247.814C320.571 249.447 319.904 250.914 319.304 252.214C320.204 252.781 320.887 253.514 321.354 254.414C321.821 255.314 321.821 256.297 321.354 257.364C318.587 259.564 317.037 261.631 316.704 263.564C316.537 264.764 316.321 265.614 316.054 266.114C315.821 266.614 315.437 267.097 314.904 267.564C313.104 268.897 310.987 268.564 308.554 266.564C306.821 264.831 306.737 262.664 308.304 260.064C308.704 259.364 309.087 258.631 309.454 257.864C309.987 256.731 310.837 255.047 312.004 252.814C309.137 254.481 306.504 254.447 304.104 252.714C302.404 251.414 301.804 248.464 302.304 243.864C302.637 240.797 302.804 238.581 302.804 237.214Z" fill="#000F32"/>
<defs>
<linearGradient id="paint0_linear_14_54" x1="43.0583" y1="184" x2="297.058" y2="184" gradientUnits="userSpaceOnUse">
<stop stop-color="#A9CC34"/>
<stop offset="0.427083" stop-color="#64A644"/>
<stop offset="1" stop-color="#64A644"/>
</linearGradient>
</defs>
</svg>
