<svg width="36" height="26" viewBox="0 0 36 26" fill="none" xmlns="http://www.w3.org/2000/svg">
<path d="M3 0.5H15.5C16.163 0.5 16.7989 0.763392 17.2678 1.23223C17.7366 1.70107 18 2.33696 18 3C18 3.66304 17.7366 4.29893 17.2678 4.76777C16.7989 5.23661 16.163 5.5 15.5 5.5H3C2.33696 5.5 1.70107 5.23661 1.23223 4.76777C0.763392 4.29893 0.5 3.66304 0.5 3C0.5 2.33696 0.763392 1.70107 1.23223 1.23223C1.70107 0.763392 2.33696 0.5 3 0.5ZM20.5 20.5H33C33.663 20.5 34.2989 20.7634 34.7678 21.2322C35.2366 21.7011 35.5 22.337 35.5 23C35.5 23.663 35.2366 24.2989 34.7678 24.7678C34.2989 25.2366 33.663 25.5 33 25.5H20.5C19.837 25.5 19.2011 25.2366 18.7322 24.7678C18.2634 24.2989 18 23.663 18 23C18 22.337 18.2634 21.7011 18.7322 21.2322C19.2011 20.7634 19.837 20.5 20.5 20.5ZM3 10.5H33C33.663 10.5 34.2989 10.7634 34.7678 11.2322C35.2366 11.7011 35.5 12.337 35.5 13C35.5 13.663 35.2366 14.2989 34.7678 14.7678C34.2989 15.2366 33.663 15.5 33 15.5H3C2.33696 15.5 1.70107 15.2366 1.23223 14.7678C0.763392 14.2989 0.5 13.663 0.5 13C0.5 12.337 0.763392 11.7011 1.23223 11.2322C1.70107 10.7634 2.33696 10.5 3 10.5Z" fill="#F0612F"/>
</svg>
